<?xml version="1.0" encoding="UTF-8"?>
<svg xmlns="http://www.w3.org/2000/svg" xmlns:xlink="http://www.w3.org/1999/xlink" viewBox="0 0 421.71 491.23">
  <defs>
    <style>
      .cls-1 {
        fill: url(#Degradado_sin_nombre_7);
      }

      .cls-2 {
        fill: url(#Degradado_sin_nombre_7-2);
      }
    </style>
    <linearGradient id="Degradado_sin_nombre_7" data-name="Degradado sin nombre 7" x1="181.17" y1="248.51" x2="374.18" y2="248.51" gradientUnits="userSpaceOnUse">
      <stop offset="0" stop-color="#117da3"/>
      <stop offset=".47" stop-color="#56b9d6"/>
    </linearGradient>
    <linearGradient id="Degradado_sin_nombre_7-2" data-name="Degradado sin nombre 7" x1="44.86" y1="253.45" x2="220.81" y2="253.45" xlink:href="#Degradado_sin_nombre_7"/>
  </defs>
  <g id="BaseLogo">
    <path class="cls-1" d="M358.99,179.35c-31.49-68.34-103.78-104.92-174.62-94.18-1.04.16-1.23,1.59-.27,2.01.79.34,1.55.76,2.28,1.28,1.94,1.37,3.36,3.2,4.25,5.22.96,1.99,1.42,4.26,1.21,6.63-.31,3.36-1.05,5.7-3.27,9.51-2.21,3.8-7.2,7.6-7.2,7.6-.56.79.14,1.83,1.09,1.64,58.81-12.14,120.33,17.25,146.54,74.12,28.78,62.45,4.69,135.74-53.66,169.51l-.24.19-2.76,2.98,11.5-14.96c3.22-4.18,2.87-10.26-1.1-13.74-4.35-3.81-10.93-3.11-14.4,1.4l-35.78,46.52c-.84,1.09-2.76,3.25-3.84,4.49-5.66,6.48-1.84,14.34,6.35,15.33,1.82.22,4.65.65,6.02.84l59.4,7.88c5.45.72,9.9-3.18,9.9-8.68h0c0-5.5-4.46-10.58-9.9-11.31l-10.35-1.37c74.23-41.75,105.12-134.21,68.85-212.91Z"/>
    <path class="cls-2" d="M216.56,389.72c.36-.27-.3.33,0,0l3.35-2.61c1.81-1.41.71-4.3-1.58-4.15-52.88,3.33-104.78-25.56-128.28-76.57-26.79-58.14-7.76-125.67,42.08-161.97l-4.83,8.57c-2.64,4.68-1.42,10.77,3.09,13.71,4.94,3.22,11.48,1.57,14.33-3.48l30.66-54.34c3.32-8.47,3.65-13.19-2.32-16.44-2.56-1.52-5.28-1.43-8.41-1.77l-62.39.62c-5.13.84-9.61,5.41-9.55,10.98h0c.06,5.58,4.62,10.05,10.2,10l18.05-.18c-68.42,43.71-95.82,132.3-60.88,208.12,28.13,61.04,88.81,96.75,151.93,96.02,1.73-.02,2.67-2.09,1.52-3.37-5.56-6.2-2.9-17.6,3.05-23.14Z"/>
  </g>
  <g id="busco">
    <g>
      <path d="M196.9,222.99c0-.05,0-.1,0-.16-.01-1.76-.63-3.49-1.78-4.86l-22.85-39.57c-.13-.23-.24-.48-.33-.74-.58-1.66-1.74-3.13-3.38-4.08-1.25-.72-2.61-1.04-3.95-1.02-1.34-.02-2.7.3-3.95,1.02-1.64.95-2.8,2.42-3.38,4.08-.09.25-.19.5-.33.74l-22.85,39.57c-1.15,1.37-1.77,3.1-1.78,4.86,0,.05,0,.1,0,.16,0,.05,0,.1,0,.16.01,1.76.63,3.49,1.78,4.86l22.85,39.57c.13.23.24.48.33.74.58,1.66,1.74,3.13,3.38,4.08,1.25.72,2.61,1.04,3.95,1.02,1.34.02,2.7-.3,3.95-1.02,1.64-.95,2.8-2.42,3.38-4.08.09-.25.19-.5.33-.74l22.85-39.57c1.15-1.37,1.77-3.1,1.78-4.86,0-.05,0-.1,0-.16ZM168.89,242.86c-1.9,3.29-6.65,3.29-8.55,0l-11.47-19.87,11.47-19.87c1.9-3.29,6.65-3.29,8.55,0l11.47,19.87-11.47,19.87Z"/>
      <path d="M286.38,222.99c0-.05,0-.1,0-.16-.01-1.76-.63-3.49-1.78-4.86l-22.85-39.57c-.13-.23-.24-.48-.33-.74-.58-1.66-1.74-3.13-3.38-4.08-1.25-.72-2.61-1.04-3.95-1.02-1.34-.02-2.7.3-3.95,1.02-1.64.95-2.79,2.42-3.38,4.08-.09.25-.19.5-.33.74l-22.85,39.57c-1.15,1.37-1.77,3.1-1.78,4.86,0,.05,0,.1,0,.16,0,.05,0,.1,0,.16.01,1.76.63,3.49,1.78,4.86l22.85,39.57c.13.23.24.48.33.74.58,1.66,1.74,3.13,3.38,4.08,1.25.72,2.61,1.04,3.95,1.02,1.34.02,2.7-.3,3.95-1.02,1.64-.95,2.8-2.42,3.38-4.08.09-.25.19-.5.33-.74l22.85-39.57c1.15-1.37,1.77-3.1,1.78-4.86,0-.05,0-.1,0-.16ZM258.38,242.86c-1.9,3.29-6.65,3.29-8.55,0l-11.47-19.87,11.47-19.87c1.9-3.29,6.65-3.29,8.55,0l11.47,19.87-11.47,19.87Z"/>
    </g>
  </g>
</svg>