<?xml version="1.0" encoding="UTF-8"?>
<svg xmlns="http://www.w3.org/2000/svg" xmlns:xlink="http://www.w3.org/1999/xlink" viewBox="0 0 421.87 491.26">
  <defs>
    <style>
      .cls-1 {
        fill: url(#Degradado_sin_nombre_7);
      }

      .cls-2 {
        fill: #ffe357;
      }

      .cls-3 {
        fill: url(#Degradado_sin_nombre_7-2);
      }
    </style>
    <linearGradient id="Degradado_sin_nombre_7" data-name="Degradado sin nombre 7" x1="181.34" y1="248.51" x2="374.34" y2="248.51" gradientUnits="userSpaceOnUse">
      <stop offset="0" stop-color="#117da3"/>
      <stop offset=".47" stop-color="#56b9d6"/>
    </linearGradient>
    <linearGradient id="Degradado_sin_nombre_7-2" data-name="Degradado sin nombre 7" x1="45.02" y1="253.45" x2="220.97" y2="253.45" xlink:href="#Degradado_sin_nombre_7"/>
  </defs>
  <g id="Capa_2" data-name="Capa 2">
    <rect class="cls-2" x="6.39" y="430.44" width="415.32" height="60.79"/>
    <g>
      <polygon points="133.65 491.26 80.66 491.26 145.93 430.53 198.92 430.53 133.65 491.26"/>
      <polygon points="207.91 491.23 154.92 491.23 220.19 430.44 273.18 430.44 207.91 491.23"/>
      <polygon points="282.18 491.15 229.19 491.15 294.46 430.78 347.45 430.78 282.18 491.15"/>
      <polygon points="356.44 491.23 303.46 491.23 368.72 430.7 421.71 430.7 356.44 491.23"/>
      <polygon points="59.38 491.26 6.39 491.26 71.66 430.44 124.65 430.44 59.38 491.26"/>
    </g>
    <rect class="cls-2" x="6.55" y="430.2" width="415.32" height="60.79"/>
    <g>
      <polygon points="133.81 491.02 80.82 491.02 146.09 430.29 199.08 430.29 133.81 491.02"/>
      <polygon points="208.07 490.99 155.08 490.99 220.35 430.2 273.34 430.2 208.07 490.99"/>
      <polygon points="282.34 490.91 229.35 490.91 294.62 430.55 347.61 430.55 282.34 490.91"/>
      <polygon points="356.61 490.99 303.62 490.99 368.89 430.47 421.87 430.47 356.61 490.99"/>
      <polygon points="59.54 491.02 6.55 491.02 71.82 430.21 124.81 430.21 59.54 491.02"/>
    </g>
    <rect class="cls-2" y=".23" width="415.32" height="60.79"/>
    <g>
      <polygon points="127.25 61.05 74.27 61.05 139.53 .32 192.52 .32 127.25 61.05"/>
      <polygon points="201.52 61.02 148.53 61.02 213.8 .23 266.79 .23 201.52 61.02"/>
      <polygon points="275.79 60.94 222.8 60.94 288.07 .58 341.06 .58 275.79 60.94"/>
      <polygon points="350.05 61.02 297.06 61.02 362.33 .5 415.32 .5 350.05 61.02"/>
      <polygon points="52.99 61.05 0 61.05 65.27 .24 118.26 .24 52.99 61.05"/>
    </g>
    <rect class="cls-2" x=".16" width="415.32" height="60.79"/>
    <g>
      <polygon points="127.42 60.82 74.43 60.82 139.7 .09 192.68 .09 127.42 60.82"/>
      <polygon points="201.68 60.79 148.69 60.79 213.96 0 266.95 0 201.68 60.79"/>
      <polygon points="275.95 60.71 222.96 60.71 288.23 .35 341.22 .35 275.95 60.71"/>
      <polygon points="350.21 60.79 297.23 60.79 362.49 .26 415.48 .26 350.21 60.79"/>
      <polygon points="53.15 60.82 .16 60.82 65.43 0 118.42 0 53.15 60.82"/>
    </g>
  </g>
  <g id="BaseLogo">
    <path class="cls-1" d="M359.15,179.35c-31.49-68.34-103.78-104.92-174.62-94.18-1.04.16-1.23,1.59-.27,2.01.79.34,1.55.76,2.28,1.28,1.94,1.37,3.36,3.2,4.25,5.22.96,1.99,1.42,4.26,1.21,6.63-.31,3.36-1.05,5.7-3.27,9.51-2.21,3.8-7.2,7.6-7.2,7.6-.56.79.14,1.83,1.09,1.64,58.81-12.14,120.33,17.25,146.54,74.12,28.78,62.45,4.69,135.74-53.66,169.51l-.24.19-2.76,2.98,11.5-14.96c3.22-4.18,2.87-10.26-1.1-13.74-4.35-3.81-10.93-3.11-14.4,1.4l-35.78,46.52c-.84,1.09-2.76,3.25-3.84,4.49-5.66,6.48-1.84,14.34,6.35,15.33,1.82.22,4.65.65,6.02.84l59.4,7.88c5.45.72,9.9-3.18,9.9-8.68h0c0-5.5-4.46-10.58-9.9-11.31l-10.35-1.37c74.23-41.75,105.12-134.21,68.85-212.91Z"/>
    <path class="cls-3" d="M216.72,389.72c.36-.27-.3.33,0,0l3.35-2.61c1.81-1.41.71-4.3-1.58-4.15-52.88,3.33-104.78-25.56-128.28-76.57-26.79-58.14-7.76-125.67,42.08-161.97l-4.83,8.57c-2.64,4.68-1.42,10.77,3.09,13.71,4.94,3.22,11.48,1.57,14.33-3.48l30.66-54.34c3.32-8.47,3.65-13.19-2.32-16.44-2.56-1.52-5.28-1.43-8.41-1.77l-62.39.62c-5.13.84-9.61,5.41-9.55,10.98h0c.06,5.58,4.62,10.05,10.2,10l18.05-.18c-68.42,43.71-95.82,132.3-60.88,208.12,28.13,61.04,88.81,96.75,151.93,96.02,1.73-.02,2.67-2.09,1.52-3.37-5.56-6.2-2.9-17.6,3.05-23.14Z"/>
  </g>
  <g id="En_Construccion" data-name="En Construccion">
    <rect x="214.01" y="221.35" width="88.78" height="25.53" rx="10.4" ry="10.4"/>
    <rect x="107.05" y="221.35" width="88.78" height="25.53" rx="10.4" ry="10.4"/>
  </g>
</svg>