<?xml version="1.0" encoding="UTF-8"?>
<svg xmlns="http://www.w3.org/2000/svg" xmlns:xlink="http://www.w3.org/1999/xlink" viewBox="0 0 421.71 491.23">
  <defs>
    <style>
      .cls-1 {
        fill: url(#Degradado_sin_nombre_7);
      }

      .cls-2 {
        fill: url(#Degradado_sin_nombre_7-2);
      }
    </style>
    <linearGradient id="Degradado_sin_nombre_7" data-name="Degradado sin nombre 7" x1="181.17" y1="248.51" x2="374.18" y2="248.51" gradientUnits="userSpaceOnUse">
      <stop offset="0" stop-color="#117da3"/>
      <stop offset=".47" stop-color="#56b9d6"/>
    </linearGradient>
    <linearGradient id="Degradado_sin_nombre_7-2" data-name="Degradado sin nombre 7" x1="44.86" y1="253.45" x2="220.81" y2="253.45" xlink:href="#Degradado_sin_nombre_7"/>
  </defs>
  <g id="BaseLogo">
    <path class="cls-1" d="M358.99,179.35c-31.49-68.34-103.78-104.92-174.62-94.18-1.04.16-1.23,1.59-.27,2.01.79.34,1.55.76,2.28,1.28,1.94,1.37,3.36,3.2,4.25,5.22.96,1.99,1.42,4.26,1.21,6.63-.31,3.36-1.05,5.7-3.27,9.51-2.21,3.8-7.2,7.6-7.2,7.6-.56.79.14,1.83,1.09,1.64,58.81-12.14,120.33,17.25,146.54,74.12,28.78,62.45,4.69,135.74-53.66,169.51l-.24.19-2.76,2.98,11.5-14.96c3.22-4.18,2.87-10.26-1.1-13.74-4.35-3.81-10.93-3.11-14.4,1.4l-35.78,46.52c-.84,1.09-2.76,3.25-3.84,4.49-5.66,6.48-1.84,14.34,6.35,15.33,1.82.22,4.65.65,6.02.84l59.4,7.88c5.45.72,9.9-3.18,9.9-8.68h0c0-5.5-4.46-10.58-9.9-11.31l-10.35-1.37c74.23-41.75,105.12-134.21,68.85-212.91Z"/>
    <path class="cls-2" d="M216.56,389.72c.36-.27-.3.33,0,0l3.35-2.61c1.81-1.41.71-4.3-1.58-4.15-52.88,3.33-104.78-25.56-128.28-76.57-26.79-58.14-7.76-125.67,42.08-161.97l-4.83,8.57c-2.64,4.68-1.42,10.77,3.09,13.71,4.94,3.22,11.48,1.57,14.33-3.48l30.66-54.34c3.32-8.47,3.65-13.19-2.32-16.44-2.56-1.52-5.28-1.43-8.41-1.77l-62.39.62c-5.13.84-9.61,5.41-9.55,10.98h0c.06,5.58,4.62,10.05,10.2,10l18.05-.18c-68.42,43.71-95.82,132.3-60.88,208.12,28.13,61.04,88.81,96.75,151.93,96.02,1.73-.02,2.67-2.09,1.52-3.37-5.56-6.2-2.9-17.6,3.05-23.14Z"/>
  </g>
  <g id="Encontre">
    <g>
      <path d="M240.25,253.08c.5,1.69,1.58,3.21,3.17,4.25,1.21.78,2.56,1.17,3.9,1.21,1.34.09,2.72-.16,4-.82,1.69-.87,2.92-2.28,3.58-3.91.1-.25.22-.49.36-.72l25.66-39.7c2.29-3.55,1.28-8.29-2.27-10.58-3.55-2.29-8.29-1.28-10.58,2.27l-14.94,23.12c-2.07,3.2-6.82,2.96-8.55-.43l-12.55-24.5c-1.93-3.76-6.54-5.25-10.3-3.32h0c-3.76,1.93-5.25,6.54-3.32,10.3l21.55,42.07c.12.24.21.5.29.75Z"/>
      <path d="M169.6,229.32c-1.06,3.65-5.68,4.79-8.32,2.04l-19.05-19.87c-2.92-3.05-7.77-3.15-10.82-.23h0c-3.05,2.92-3.15,7.77-.23,10.82l32.71,34.12c.19.19.35.41.49.64.96,1.47,2.43,2.63,4.26,3.16,1.38.4,2.78.39,4.08.04,1.31-.3,2.56-.93,3.6-1.93,1.37-1.31,2.14-3.02,2.31-4.77.03-.27.07-.54.14-.8l13.2-45.39c1.18-4.06-1.15-8.3-5.21-9.48-4.06-1.18-8.3,1.15-9.48,5.21l-7.69,26.43Z"/>
    </g>
  </g>
</svg>